<?xml version="1.0" standalone="no"?>
<!DOCTYPE svg PUBLIC "-//W3C//DTD SVG 20010904//EN"
 "http://www.w3.org/TR/2001/REC-SVG-20010904/DTD/svg10.dtd">
<svg version="1.0" xmlns="http://www.w3.org/2000/svg"
 width="700.000000pt" height="700.000000pt" viewBox="0 0 700.000000 700.000000"
 preserveAspectRatio="xMidYMid meet">
<metadata>
Created by potrace 1.14, written by Peter Selinger 2001-2017
</metadata>
<g transform="translate(0.000000,700.000000) scale(0.100000,-0.100000)"
fill="#000000" stroke="none">
<path d="M2449 5886 c-2 -2 -49 -6 -104 -9 -55 -4 -111 -9 -125 -12 -14 -3
-41 -8 -60 -11 -157 -26 -421 -151 -554 -263 -81 -68 -209 -208 -259 -283 -54
-81 -137 -236 -137 -256 0 -5 -9 -29 -19 -53 -22 -51 -56 -206 -66 -299 -13
-131 -5 -270 21 -395 9 -38 17 -78 19 -87 8 -38 56 -161 89 -227 61 -124 128
-217 377 -521 80 -98 419 -519 474 -588 5 -7 15 -18 20 -25 8 -9 120 -148 192
-237 6 -8 74 -92 150 -185 76 -94 152 -188 168 -209 17 -21 37 -46 45 -56 8
-10 27 -34 42 -52 86 -107 142 -175 156 -193 10 -11 44 -54 77 -95 33 -41 65
-82 72 -90 7 -8 37 -46 68 -85 31 -38 64 -79 73 -90 10 -11 70 -87 136 -168
141 -176 158 -191 206 -183 42 6 60 25 204 206 33 41 62 77 66 80 3 3 77 95
165 205 88 110 167 209 176 220 29 35 279 344 384 475 55 69 105 130 110 136
6 6 80 98 165 204 85 106 217 270 293 364 155 191 138 170 353 436 200 247
249 315 308 429 61 119 83 178 115 319 36 156 42 341 17 487 -2 11 -7 38 -11
60 -12 71 -74 245 -116 329 -119 235 -334 451 -574 575 -51 26 -106 51 -125
56 -3 0 -41 13 -85 27 -197 63 -411 76 -625 37 -69 -13 -214 -55 -260 -76
-228 -102 -387 -223 -538 -408 l-33 -40 -31 40 c-64 81 -219 224 -300 278
-197 131 -408 206 -627 223 -42 3 -79 8 -82 10 -3 2 -8 2 -10 0z"/>
</g>
</svg>
